<?xml version="1.0" standalone="no"?>
<!DOCTYPE svg PUBLIC "-//W3C//DTD SVG 20010904//EN"
 "http://www.w3.org/TR/2001/REC-SVG-20010904/DTD/svg10.dtd">
<svg version="1.0" xmlns="http://www.w3.org/2000/svg"
 width="32.000000pt" height="32.000000pt" viewBox="0 0 32.000000 32.000000"
 preserveAspectRatio="xMidYMid meet">

<g transform="translate(0.000000,32.000000) scale(0.100000,-0.100000)"
fill="#000000" stroke="none">
<path d="M117 268 c-20 -29 -45 -74 -57 -100 -18 -41 -19 -51 -8 -84 15 -44
66 -84 108 -84 41 0 93 40 107 83 11 32 10 44 -3 75 -18 45 -93 162 -104 162
-3 0 -23 -24 -43 -52z m85 -36 c67 -104 70 -142 16 -187 -38 -32 -78 -32 -116
0 -54 45 -50 89 20 195 18 27 35 50 38 50 3 0 22 -26 42 -58z"/>
<path d="M104 155 c-4 -9 -2 -21 4 -27 15 -15 44 -1 40 19 -4 23 -36 29 -44 8z"/>
<path d="M153 124 c-35 -46 -39 -54 -23 -54 13 0 72 88 63 93 -5 3 -23 -15
-40 -39z"/>
<path d="M180 105 c-15 -18 -5 -35 21 -35 12 0 19 7 19 19 0 24 -25 34 -40 16z"/>
</g>
</svg>
