<?xml version="1.0" standalone="no"?>
<!DOCTYPE svg PUBLIC "-//W3C//DTD SVG 20010904//EN"
 "http://www.w3.org/TR/2001/REC-SVG-20010904/DTD/svg10.dtd">
<svg version="1.0" xmlns="http://www.w3.org/2000/svg"
 width="50.000000pt" height="50.000000pt" viewBox="0 0 50.000000 50.000000"
 preserveAspectRatio="xMidYMid meet">

<g transform="translate(0.000000,50.000000) scale(0.100000,-0.100000)"
fill="#000000" stroke="none">
<path d="M93 436 c-20 -18 -25 -28 -17 -36 8 -8 19 -6 42 7 36 20 65 11 70
-23 5 -37 -14 -49 -85 -54 -52 -4 -68 -9 -68 -20 0 -12 16 -16 68 -18 63 -3
69 -1 97 27 39 38 39 74 1 112 -36 36 -70 37 -108 5z"/>
<path d="M319 415 c-30 -16 -44 -44 -30 -58 6 -6 19 -2 37 12 33 26 58 27 84
1 24 -24 25 -49 6 -76 -13 -17 -31 -19 -198 -24 -154 -4 -183 -7 -183 -20 0
-13 28 -15 183 -18 l184 -2 34 34 c21 21 34 44 34 60 0 81 -80 130 -151 91z"/>
<path d="M35 200 c-14 -23 11 -30 115 -30 117 0 144 -11 138 -53 -5 -35 -34
-45 -70 -24 -23 13 -34 15 -42 7 -15 -16 37 -60 70 -60 34 0 84 51 84 85 0 16
-12 38 -29 56 -29 29 -31 29 -145 29 -66 0 -117 -4 -121 -10z"/>
</g>
</svg>
