<?xml version="1.0" standalone="no"?>
<!DOCTYPE svg PUBLIC "-//W3C//DTD SVG 20010904//EN"
 "http://www.w3.org/TR/2001/REC-SVG-20010904/DTD/svg10.dtd">
<svg version="1.0" xmlns="http://www.w3.org/2000/svg"
 width="709.000000pt" height="223.000000pt" viewBox="0 0 709.000000 223.000000"
 preserveAspectRatio="xMidYMid meet">

<g transform="translate(0.000000,223.000000) scale(0.100000,-0.100000)"
fill="#000000" stroke="none">
<path d="M3722 2199 c-146 -22 -269 -87 -373 -196 -113 -119 -162 -241 -163
-403 0 -161 48 -279 168 -407 107 -115 221 -189 536 -348 246 -125 333 -193
387 -303 23 -46 28 -70 28 -127 -1 -124 -66 -217 -195 -279 -60 -29 -73 -31
-175 -31 -89 0 -124 5 -184 24 -165 54 -323 197 -410 370 -44 89 -75 174 -95
264 -5 22 -12 27 -36 27 l-30 0 0 -395 0 -395 33 0 c25 0 36 6 48 29 9 15 33
41 54 57 54 41 110 38 246 -14 166 -64 209 -72 375 -72 172 0 240 13 361 71
96 46 228 164 281 252 144 238 109 540 -83 732 -96 97 -232 185 -501 323 -263
136 -299 157 -367 220 -77 73 -102 123 -102 207 1 181 158 299 375 282 141
-11 271 -78 383 -196 92 -98 159 -226 182 -353 7 -35 10 -38 41 -38 l33 0 -4
128 c-3 70 -8 229 -11 355 l-6 227 -23 0 c-22 0 -35 -17 -35 -47 0 -32 -32
-82 -61 -93 -36 -15 -56 -10 -199 50 -63 27 -143 56 -177 64 -79 21 -220 28
-301 15z"/>
<path d="M5575 1373 c-405 -909 -495 -1098 -557 -1168 -42 -47 -108 -87 -165
-100 -28 -6 -33 -11 -33 -36 l0 -29 355 0 355 0 0 28 c0 28 -1 28 -89 39 -154
20 -195 58 -188 178 4 70 23 128 96 288 l30 67 375 0 374 0 77 -182 c88 -206
99 -240 85 -283 -15 -46 -59 -67 -156 -73 l-84 -5 0 -28 0 -29 510 0 510 0 0
29 c0 25 -4 30 -37 36 -91 17 -140 62 -213 198 -22 41 -221 484 -440 984 -299
680 -404 909 -417 911 -15 2 -84 -145 -388 -825z m340 -248 c81 -187 149 -346
152 -352 4 -10 -62 -13 -312 -13 -298 0 -317 1 -310 18 35 94 312 699 316 694
4 -4 73 -160 154 -347z"/>
<path d="M60 2130 l0 -30 63 0 c108 0 182 -34 214 -100 17 -33 18 -94 18 -875
l0 -840 -30 -59 c-38 -77 -102 -116 -200 -124 -64 -5 -65 -5 -65 -33 l0 -29
365 0 365 0 0 29 c0 28 -1 28 -70 34 -38 3 -89 14 -112 25 -53 23 -103 79
-118 129 -8 26 -10 288 -8 857 l3 818 165 -383 c707 -1648 665 -1561 708
-1462 17 41 604 1434 741 1758 l46 110 3 -820 c2 -451 0 -843 -3 -872 -13
-109 -72 -155 -207 -161 l-88 -4 0 -29 0 -29 555 0 555 0 0 29 0 29 -82 3
c-126 6 -188 46 -208 135 -12 51 -12 1677 0 1728 20 88 80 128 207 134 l83 5
0 28 0 29 -432 0 -433 0 -33 -83 c-152 -376 -536 -1297 -541 -1297 -3 0 -139
311 -301 690 l-294 690 -433 0 -433 0 0 -30z"/>
</g>
</svg>
